<svg xmlns="http://www.w3.org/2000/svg" xmlns:xlink="http://www.w3.org/1999/xlink" zoomAndPan="magnify" viewBox="0 0 375 374.999991" preserveAspectRatio="xMidYMid meet" version="1.0"><defs><g/><clipPath id="c6093af7de"><path d="M 19.3125 19.3125 L 355.3125 19.3125 L 355.3125 355.3125 L 19.3125 355.3125 Z M 19.3125 19.3125 " clip-rule="nonzero"/></clipPath></defs><g clip-path="url(#c6093af7de)"><path fill="#ffffff" d="M 187.3125 355.3125 C 94.5 355.3125 19.3125 279.609375 19.3125 187.3125 C 19.3125 95.015625 94.5 19.3125 187.3125 19.3125 C 280.128906 19.3125 355.3125 94.5 355.3125 187.3125 C 355.3125 280.128906 279.609375 355.3125 187.3125 355.3125 Z M 187.3125 29.683594 C 100.203125 29.683594 29.683594 100.203125 29.683594 187.3125 C 29.683594 274.425781 100.203125 344.941406 187.3125 344.941406 C 274.425781 344.941406 344.941406 274.425781 344.941406 187.3125 C 344.941406 100.203125 273.90625 29.683594 187.3125 29.683594 Z M 187.3125 29.683594 " fill-opacity="1" fill-rule="nonzero"/></g><g fill="#ffffff" fill-opacity="1"><g transform="translate(39.984377, 215.713755)"><g><path d="M 11.859375 -21.140625 C 12.773438 -16.328125 14.578125 -12.53125 17.265625 -9.75 C 19.960938 -6.96875 23.144531 -5.578125 26.8125 -5.578125 C 29.21875 -5.578125 30.992188 -6.265625 32.140625 -7.640625 C 33.285156 -9.015625 33.859375 -10.535156 33.859375 -12.203125 C 33.859375 -14.660156 32.78125 -16.734375 30.625 -18.421875 C 28.476562 -20.117188 25.398438 -21.941406 21.390625 -23.890625 C 16.003906 -26.523438 11.9375 -29.445312 9.1875 -32.65625 C 6.4375 -35.863281 5.0625 -39.753906 5.0625 -44.328125 C 5.0625 -47.710938 5.90625 -50.648438 7.59375 -53.140625 C 9.289062 -55.628906 11.597656 -57.53125 14.515625 -58.84375 C 17.441406 -60.164062 20.707031 -60.828125 24.3125 -60.828125 C 26.207031 -60.828125 28.253906 -60.640625 30.453125 -60.265625 C 32.660156 -59.898438 34.425781 -59.34375 35.75 -58.59375 L 43.046875 -60.828125 C 44.078125 -59.054688 44.734375 -56.609375 45.015625 -53.484375 C 45.304688 -50.359375 45.453125 -46.765625 45.453125 -42.703125 L 45.453125 -41.421875 L 38.328125 -41.421875 C 36.265625 -49.773438 32.222656 -53.953125 26.203125 -53.953125 C 23.910156 -53.953125 22.191406 -53.304688 21.046875 -52.015625 C 19.898438 -50.734375 19.328125 -49.03125 19.328125 -46.90625 C 19.328125 -45.1875 19.785156 -43.695312 20.703125 -42.4375 C 21.617188 -41.1875 22.78125 -40.113281 24.1875 -39.21875 C 25.59375 -38.332031 27.46875 -37.316406 29.8125 -36.171875 C 33.425781 -34.398438 36.445312 -32.738281 38.875 -31.1875 C 41.3125 -29.644531 43.414062 -27.597656 45.1875 -25.046875 C 46.96875 -22.492188 47.859375 -19.472656 47.859375 -15.984375 C 47.859375 -12.773438 47.054688 -9.863281 45.453125 -7.25 C 43.847656 -4.644531 41.515625 -2.570312 38.453125 -1.03125 C 35.390625 0.507812 31.820312 1.28125 27.75 1.28125 C 23.113281 1.28125 18.503906 0.3125 13.921875 -1.625 L 7.296875 1.28125 C 6.210938 -0.882812 5.269531 -4.273438 4.46875 -8.890625 C 3.664062 -13.503906 3.265625 -17.585938 3.265625 -21.140625 Z M 11.859375 -21.140625 "/></g></g></g><g fill="#ffffff" fill-opacity="1"><g transform="translate(90.929053, 215.713755)"><g><path d="M 23.03125 1.109375 C 16.726562 1.109375 11.6875 -0.878906 7.90625 -4.859375 C 4.125 -8.835938 2.234375 -14.519531 2.234375 -21.90625 C 2.234375 -27.175781 3.132812 -31.671875 4.9375 -35.390625 C 6.738281 -39.117188 9.269531 -41.925781 12.53125 -43.8125 C 15.800781 -45.707031 19.585938 -46.65625 23.890625 -46.65625 C 28.015625 -46.65625 31.632812 -45.753906 34.75 -43.953125 C 37.875 -42.148438 40.304688 -39.5 42.046875 -36 C 43.796875 -32.507812 44.671875 -28.269531 44.671875 -23.28125 C 44.671875 -18.070312 43.769531 -13.632812 41.96875 -9.96875 C 40.164062 -6.300781 37.628906 -3.535156 34.359375 -1.671875 C 31.097656 0.179688 27.320312 1.109375 23.03125 1.109375 Z M 23.71875 -5.0625 C 25.71875 -5.0625 27.203125 -6.207031 28.171875 -8.5 C 29.148438 -10.789062 29.640625 -15.03125 29.640625 -21.21875 C 29.640625 -26.4375 29.378906 -30.445312 28.859375 -33.25 C 28.347656 -36.0625 27.632812 -37.984375 26.71875 -39.015625 C 25.800781 -40.046875 24.628906 -40.5625 23.203125 -40.5625 C 21.191406 -40.5625 19.6875 -39.414062 18.6875 -37.125 C 17.6875 -34.832031 17.1875 -30.535156 17.1875 -24.234375 C 17.1875 -19.078125 17.441406 -15.109375 17.953125 -12.328125 C 18.472656 -9.546875 19.203125 -7.640625 20.140625 -6.609375 C 21.085938 -5.578125 22.28125 -5.0625 23.71875 -5.0625 Z M 23.71875 -5.0625 "/></g></g></g><g fill="#ffffff" fill-opacity="1"><g transform="translate(137.835956, 215.713755)"><g><path d="M 43.984375 -10.046875 C 43.984375 -8.671875 44.34375 -7.523438 45.0625 -6.609375 C 45.78125 -5.691406 46.796875 -5.175781 48.109375 -5.0625 L 48.109375 -2.65625 C 47.191406 -1.625 45.773438 -0.820312 43.859375 -0.25 C 41.941406 0.3125 40.007812 0.59375 38.0625 0.59375 C 36.113281 0.59375 34.453125 0.0820312 33.078125 -0.9375 C 31.703125 -1.96875 30.785156 -3.398438 30.328125 -5.234375 C 27.578125 -1.347656 23.65625 0.59375 18.5625 0.59375 C 14.550781 0.59375 11.425781 -0.632812 9.1875 -3.09375 C 6.957031 -5.550781 5.84375 -8.875 5.84375 -13.0625 L 5.84375 -36.6875 C 5.84375 -37.664062 5.484375 -38.351562 4.765625 -38.75 C 4.046875 -39.15625 3 -39.359375 1.625 -39.359375 L 1.625 -43.125 C 2.488281 -43.8125 4.132812 -44.5 6.5625 -45.1875 C 9 -45.875 11.59375 -46.21875 14.34375 -46.21875 C 15.945312 -46.21875 17.117188 -46.117188 17.859375 -45.921875 C 18.609375 -45.722656 19.125 -45.304688 19.40625 -44.671875 C 19.695312 -44.046875 19.84375 -43.046875 19.84375 -41.671875 L 19.84375 -12.796875 C 19.84375 -11.023438 20.144531 -9.691406 20.75 -8.796875 C 21.351562 -7.910156 22.34375 -7.46875 23.71875 -7.46875 C 24.863281 -7.46875 25.992188 -7.828125 27.109375 -8.546875 C 28.222656 -9.265625 29.179688 -10.140625 29.984375 -11.171875 L 29.984375 -36.6875 C 29.984375 -38.46875 28.378906 -39.359375 25.171875 -39.359375 L 25.171875 -43.125 C 26.085938 -43.875 27.765625 -44.578125 30.203125 -45.234375 C 32.640625 -45.890625 35.316406 -46.21875 38.234375 -46.21875 C 40.585938 -46.21875 42.132812 -45.945312 42.875 -45.40625 C 43.613281 -44.863281 43.984375 -43.617188 43.984375 -41.671875 Z M 43.984375 -10.046875 "/></g></g></g><g fill="#ffffff" fill-opacity="1"><g transform="translate(186.976517, 215.713755)"><g><path d="M 50.859375 -2.3125 C 50.003906 -1.457031 48.472656 -0.769531 46.265625 -0.25 C 44.054688 0.257812 41.953125 0.515625 39.953125 0.515625 C 37.492188 0.515625 35.675781 0.0546875 34.5 -0.859375 C 33.320312 -1.773438 32.734375 -3.234375 32.734375 -5.234375 L 32.734375 -32.046875 C 32.734375 -34.285156 32.242188 -35.890625 31.265625 -36.859375 C 30.296875 -37.835938 29.007812 -38.328125 27.40625 -38.328125 C 25.0625 -38.328125 23.085938 -37.378906 21.484375 -35.484375 L 21.484375 -9.28125 C 21.484375 -7.613281 21.835938 -6.40625 22.546875 -5.65625 C 23.265625 -4.914062 24.484375 -4.546875 26.203125 -4.546875 C 26.203125 -2.828125 25.546875 -1.3125 24.234375 0 L 4.71875 0 C 3.34375 -1.375 2.65625 -2.890625 2.65625 -4.546875 C 4.375 -4.546875 5.601562 -4.914062 6.34375 -5.65625 C 7.09375 -6.40625 7.46875 -7.613281 7.46875 -9.28125 L 7.46875 -34.375 C 7.46875 -35.914062 7.035156 -37.015625 6.171875 -37.671875 C 5.316406 -38.335938 3.832031 -38.671875 1.71875 -38.671875 L 1.71875 -42.53125 C 3.550781 -43.5625 6.140625 -44.503906 9.484375 -45.359375 C 12.835938 -46.222656 15.375 -46.65625 17.09375 -46.65625 C 18.414062 -46.65625 19.429688 -46.238281 20.140625 -45.40625 C 20.859375 -44.570312 21.273438 -43.015625 21.390625 -40.734375 C 22.878906 -42.554688 24.738281 -44 26.96875 -45.0625 C 29.207031 -46.125 31.734375 -46.65625 34.546875 -46.65625 C 38.671875 -46.65625 41.71875 -45.609375 43.6875 -43.515625 C 45.664062 -41.429688 46.65625 -38.007812 46.65625 -33.25 L 46.65625 -9.796875 C 46.65625 -6.984375 48.03125 -5.320312 50.78125 -4.8125 Z M 50.859375 -2.3125 "/></g></g></g><g fill="#ffffff" fill-opacity="1"><g transform="translate(239.467565, 215.713755)"><g><path d="M 47.765625 -2.140625 C 46.960938 -1.109375 45.757812 -0.3125 44.15625 0.25 C 42.5625 0.820312 40.847656 1.109375 39.015625 1.109375 C 37.347656 1.109375 35.710938 0.75 34.109375 0.03125 C 32.503906 -0.675781 31.390625 -1.660156 30.765625 -2.921875 C 29.617188 -1.429688 28.195312 -0.390625 26.5 0.203125 C 24.8125 0.804688 22.707031 1.109375 20.1875 1.109375 C 16.976562 1.109375 14.023438 0.296875 11.328125 -1.328125 C 8.640625 -2.960938 6.476562 -5.394531 4.84375 -8.625 C 3.21875 -11.863281 2.40625 -15.832031 2.40625 -20.53125 C 2.40625 -26.09375 3.445312 -30.820312 5.53125 -34.71875 C 7.625 -38.613281 10.390625 -41.53125 13.828125 -43.46875 C 17.265625 -45.414062 21.046875 -46.390625 25.171875 -46.390625 C 26.148438 -46.390625 27.898438 -46.273438 30.421875 -46.046875 L 30.15625 -51.203125 L 30.15625 -55.5 C 30.15625 -56.9375 29.753906 -58 28.953125 -58.6875 C 28.148438 -59.375 26.632812 -59.71875 24.40625 -59.71875 L 24.40625 -63.234375 C 26.40625 -64.328125 29.007812 -65.300781 32.21875 -66.15625 C 35.425781 -67.019531 37.945312 -67.453125 39.78125 -67.453125 C 41.101562 -67.453125 42.0625 -67.148438 42.65625 -66.546875 C 43.257812 -65.941406 43.5625 -64.925781 43.5625 -63.5 L 43.5625 -9.53125 C 43.5625 -6.726562 44.9375 -5.066406 47.6875 -4.546875 Z M 26.125 -6.1875 C 27.894531 -6.1875 29.238281 -6.703125 30.15625 -7.734375 L 30.15625 -37.8125 C 28.957031 -39.46875 27.351562 -40.296875 25.34375 -40.296875 C 22.820312 -40.296875 20.800781 -38.976562 19.28125 -36.34375 C 17.769531 -33.707031 17.015625 -29.441406 17.015625 -23.546875 C 17.015625 -17.867188 17.859375 -13.554688 19.546875 -10.609375 C 21.234375 -7.660156 23.425781 -6.1875 26.125 -6.1875 Z M 26.125 -6.1875 "/></g></g></g><g fill="#ffffff" fill-opacity="1"><g transform="translate(288.092683, 215.713755)"><g><path d="M 23.03125 1.109375 C 16.726562 1.109375 11.6875 -0.878906 7.90625 -4.859375 C 4.125 -8.835938 2.234375 -14.519531 2.234375 -21.90625 C 2.234375 -27.175781 3.132812 -31.671875 4.9375 -35.390625 C 6.738281 -39.117188 9.269531 -41.925781 12.53125 -43.8125 C 15.800781 -45.707031 19.585938 -46.65625 23.890625 -46.65625 C 28.015625 -46.65625 31.632812 -45.753906 34.75 -43.953125 C 37.875 -42.148438 40.304688 -39.5 42.046875 -36 C 43.796875 -32.507812 44.671875 -28.269531 44.671875 -23.28125 C 44.671875 -18.070312 43.769531 -13.632812 41.96875 -9.96875 C 40.164062 -6.300781 37.628906 -3.535156 34.359375 -1.671875 C 31.097656 0.179688 27.320312 1.109375 23.03125 1.109375 Z M 23.71875 -5.0625 C 25.71875 -5.0625 27.203125 -6.207031 28.171875 -8.5 C 29.148438 -10.789062 29.640625 -15.03125 29.640625 -21.21875 C 29.640625 -26.4375 29.378906 -30.445312 28.859375 -33.25 C 28.347656 -36.0625 27.632812 -37.984375 26.71875 -39.015625 C 25.800781 -40.046875 24.628906 -40.5625 23.203125 -40.5625 C 21.191406 -40.5625 19.6875 -39.414062 18.6875 -37.125 C 17.6875 -34.832031 17.1875 -30.535156 17.1875 -24.234375 C 17.1875 -19.078125 17.441406 -15.109375 17.953125 -12.328125 C 18.472656 -9.546875 19.203125 -7.640625 20.140625 -6.609375 C 21.085938 -5.578125 22.28125 -5.0625 23.71875 -5.0625 Z M 23.71875 -5.0625 "/></g></g></g></svg>