<svg xmlns="http://www.w3.org/2000/svg" xmlns:xlink="http://www.w3.org/1999/xlink" width="500" zoomAndPan="magnify" viewBox="0 0 375 374.999991" height="500" preserveAspectRatio="xMidYMid meet" version="1.0"><defs><g/><clipPath id="e69e2b6d80"><path d="M 19.3125 19.3125 L 355.3125 19.3125 L 355.3125 355.3125 L 19.3125 355.3125 Z M 19.3125 19.3125 " clip-rule="nonzero"/></clipPath></defs><g clip-path="url(#e69e2b6d80)"><path fill="#fdf0d5" d="M 187.496094 355.675781 C 94.578125 355.675781 19.3125 279.890625 19.3125 187.496094 C 19.3125 95.097656 94.578125 19.3125 187.496094 19.3125 C 280.410156 19.3125 355.675781 94.578125 355.675781 187.496094 C 355.675781 280.410156 279.890625 355.675781 187.496094 355.675781 Z M 187.496094 29.695312 C 100.289062 29.695312 29.695312 100.289062 29.695312 187.496094 C 29.695312 274.699219 100.289062 345.292969 187.496094 345.292969 C 274.699219 345.292969 345.292969 274.699219 345.292969 187.496094 C 345.292969 100.289062 274.179688 29.695312 187.496094 29.695312 Z M 187.496094 29.695312 " fill-opacity="1" fill-rule="nonzero"/></g><g fill="#fdf0d5" fill-opacity="1"><g transform="translate(40.905693, 216.374986)"><g><path d="M 11.78125 -21 C 12.6875 -16.21875 14.476562 -12.445312 17.15625 -9.6875 C 19.832031 -6.925781 22.992188 -5.546875 26.640625 -5.546875 C 29.023438 -5.546875 30.785156 -6.226562 31.921875 -7.59375 C 33.066406 -8.957031 33.640625 -10.46875 33.640625 -12.125 C 33.640625 -14.570312 32.570312 -16.632812 30.4375 -18.3125 C 28.300781 -19.988281 25.242188 -21.796875 21.265625 -23.734375 C 15.910156 -26.347656 11.863281 -29.25 9.125 -32.4375 C 6.394531 -35.625 5.03125 -39.492188 5.03125 -44.046875 C 5.03125 -47.410156 5.867188 -50.328125 7.546875 -52.796875 C 9.234375 -55.273438 11.523438 -57.171875 14.421875 -58.484375 C 17.328125 -59.796875 20.570312 -60.453125 24.15625 -60.453125 C 26.039062 -60.453125 28.078125 -60.265625 30.265625 -59.890625 C 32.453125 -59.515625 34.203125 -58.957031 35.515625 -58.21875 L 42.765625 -60.453125 C 43.796875 -58.679688 44.453125 -56.242188 44.734375 -53.140625 C 45.015625 -50.046875 45.15625 -46.476562 45.15625 -42.4375 L 45.15625 -41.15625 L 38.078125 -41.15625 C 36.023438 -49.457031 32.015625 -53.609375 26.046875 -53.609375 C 23.765625 -53.609375 22.050781 -52.96875 20.90625 -51.6875 C 19.769531 -50.414062 19.203125 -48.722656 19.203125 -46.609375 C 19.203125 -44.898438 19.65625 -43.421875 20.5625 -42.171875 C 21.476562 -40.921875 22.632812 -39.851562 24.03125 -38.96875 C 25.425781 -38.09375 27.289062 -37.082031 29.625 -35.9375 C 33.207031 -34.175781 36.207031 -32.523438 38.625 -30.984375 C 41.050781 -29.453125 43.144531 -27.421875 44.90625 -24.890625 C 46.664062 -22.359375 47.546875 -19.351562 47.546875 -15.875 C 47.546875 -12.6875 46.75 -9.796875 45.15625 -7.203125 C 43.5625 -4.617188 41.242188 -2.554688 38.203125 -1.015625 C 35.160156 0.515625 31.617188 1.28125 27.578125 1.28125 C 22.960938 1.28125 18.378906 0.3125 13.828125 -1.625 L 7.25 1.28125 C 6.175781 -0.882812 5.238281 -4.253906 4.4375 -8.828125 C 3.644531 -13.410156 3.25 -17.46875 3.25 -21 Z M 11.78125 -21 "/></g></g></g><g fill="#fdf0d5" fill-opacity="1"><g transform="translate(91.53077, 216.374986)"><g><path d="M 22.875 1.109375 C 16.613281 1.109375 11.601562 -0.863281 7.84375 -4.8125 C 4.09375 -8.769531 2.21875 -14.421875 2.21875 -21.765625 C 2.21875 -27.003906 3.113281 -31.472656 4.90625 -35.171875 C 6.695312 -38.867188 9.210938 -41.65625 12.453125 -43.53125 C 15.703125 -45.414062 19.460938 -46.359375 23.734375 -46.359375 C 27.828125 -46.359375 31.425781 -45.460938 34.53125 -43.671875 C 37.632812 -41.878906 40.050781 -39.242188 41.78125 -35.765625 C 43.519531 -32.296875 44.390625 -28.085938 44.390625 -23.140625 C 44.390625 -17.960938 43.492188 -13.550781 41.703125 -9.90625 C 39.910156 -6.257812 37.390625 -3.507812 34.140625 -1.65625 C 30.898438 0.1875 27.144531 1.109375 22.875 1.109375 Z M 23.5625 -5.03125 C 25.550781 -5.03125 27.03125 -6.164062 28 -8.4375 C 28.96875 -10.71875 29.453125 -14.9375 29.453125 -21.09375 C 29.453125 -26.269531 29.195312 -30.25 28.6875 -33.03125 C 28.175781 -35.820312 27.460938 -37.726562 26.546875 -38.75 C 25.640625 -39.78125 24.472656 -40.296875 23.046875 -40.296875 C 21.054688 -40.296875 19.5625 -39.15625 18.5625 -36.875 C 17.570312 -34.601562 17.078125 -30.335938 17.078125 -24.078125 C 17.078125 -18.953125 17.332031 -15.007812 17.84375 -12.25 C 18.351562 -9.488281 19.078125 -7.59375 20.015625 -6.5625 C 20.953125 -5.539062 22.132812 -5.03125 23.5625 -5.03125 Z M 23.5625 -5.03125 "/></g></g></g><g fill="#fdf0d5" fill-opacity="1"><g transform="translate(138.143411, 216.374986)"><g><path d="M 43.71875 -9.984375 C 43.71875 -8.617188 44.070312 -7.476562 44.78125 -6.5625 C 45.488281 -5.65625 46.5 -5.144531 47.8125 -5.03125 L 47.8125 -2.640625 C 46.894531 -1.617188 45.484375 -0.820312 43.578125 -0.25 C 41.671875 0.3125 39.753906 0.59375 37.828125 0.59375 C 35.890625 0.59375 34.238281 0.0820312 32.875 -0.9375 C 31.507812 -1.957031 30.597656 -3.378906 30.140625 -5.203125 C 27.410156 -1.335938 23.507812 0.59375 18.4375 0.59375 C 14.457031 0.59375 11.359375 -0.628906 9.140625 -3.078125 C 6.921875 -5.523438 5.8125 -8.828125 5.8125 -12.984375 L 5.8125 -36.453125 C 5.8125 -37.421875 5.453125 -38.101562 4.734375 -38.5 C 4.023438 -38.90625 2.988281 -39.109375 1.625 -39.109375 L 1.625 -42.859375 C 2.476562 -43.535156 4.113281 -44.21875 6.53125 -44.90625 C 8.945312 -45.59375 11.519531 -45.9375 14.25 -45.9375 C 15.84375 -45.9375 17.007812 -45.832031 17.75 -45.625 C 18.5 -45.425781 19.015625 -45.015625 19.296875 -44.390625 C 19.578125 -43.765625 19.71875 -42.769531 19.71875 -41.40625 L 19.71875 -12.71875 C 19.71875 -10.957031 20.015625 -9.632812 20.609375 -8.75 C 21.210938 -7.863281 22.195312 -7.421875 23.5625 -7.421875 C 24.695312 -7.421875 25.816406 -7.773438 26.921875 -8.484375 C 28.035156 -9.203125 28.992188 -10.070312 29.796875 -11.09375 L 29.796875 -36.453125 C 29.796875 -38.222656 28.203125 -39.109375 25.015625 -39.109375 L 25.015625 -42.859375 C 25.921875 -43.597656 27.582031 -44.296875 30 -44.953125 C 32.425781 -45.609375 35.085938 -45.9375 37.984375 -45.9375 C 40.328125 -45.9375 41.867188 -45.664062 42.609375 -45.125 C 43.347656 -44.582031 43.71875 -43.34375 43.71875 -41.40625 Z M 43.71875 -9.984375 "/></g></g></g><g fill="#fdf0d5" fill-opacity="1"><g transform="translate(186.975702, 216.374986)"><g><path d="M 50.546875 -2.3125 C 49.691406 -1.457031 48.164062 -0.769531 45.96875 -0.25 C 43.78125 0.257812 41.691406 0.515625 39.703125 0.515625 C 37.253906 0.515625 35.445312 0.0625 34.28125 -0.84375 C 33.113281 -1.757812 32.53125 -3.210938 32.53125 -5.203125 L 32.53125 -31.84375 C 32.53125 -34.0625 32.046875 -35.65625 31.078125 -36.625 C 30.109375 -37.59375 28.828125 -38.078125 27.234375 -38.078125 C 24.898438 -38.078125 22.9375 -37.140625 21.34375 -35.265625 L 21.34375 -9.21875 C 21.34375 -7.570312 21.695312 -6.378906 22.40625 -5.640625 C 23.125 -4.898438 24.335938 -4.53125 26.046875 -4.53125 C 26.046875 -2.820312 25.390625 -1.3125 24.078125 0 L 4.703125 0 C 3.328125 -1.363281 2.640625 -2.875 2.640625 -4.53125 C 4.347656 -4.53125 5.570312 -4.898438 6.3125 -5.640625 C 7.050781 -6.378906 7.421875 -7.570312 7.421875 -9.21875 L 7.421875 -34.15625 C 7.421875 -35.6875 6.992188 -36.78125 6.140625 -37.4375 C 5.285156 -38.09375 3.804688 -38.421875 1.703125 -38.421875 L 1.703125 -42.265625 C 3.523438 -43.285156 6.097656 -44.222656 9.421875 -45.078125 C 12.753906 -45.929688 15.273438 -46.359375 16.984375 -46.359375 C 18.296875 -46.359375 19.304688 -45.941406 20.015625 -45.109375 C 20.734375 -44.285156 21.148438 -42.738281 21.265625 -40.46875 C 22.742188 -42.289062 24.59375 -43.726562 26.8125 -44.78125 C 29.03125 -45.832031 31.535156 -46.359375 34.328125 -46.359375 C 38.421875 -46.359375 41.445312 -45.316406 43.40625 -43.234375 C 45.375 -41.160156 46.359375 -37.765625 46.359375 -33.046875 L 46.359375 -9.734375 C 46.359375 -6.941406 47.722656 -5.289062 50.453125 -4.78125 Z M 50.546875 -2.3125 "/></g></g></g><g fill="#fdf0d5" fill-opacity="1"><g transform="translate(239.137469, 216.374986)"><g><path d="M 47.46875 -2.140625 C 46.664062 -1.109375 45.46875 -0.3125 43.875 0.25 C 42.289062 0.820312 40.585938 1.109375 38.765625 1.109375 C 37.109375 1.109375 35.484375 0.75 33.890625 0.03125 C 32.296875 -0.675781 31.1875 -1.65625 30.5625 -2.90625 C 29.425781 -1.425781 28.015625 -0.390625 26.328125 0.203125 C 24.648438 0.804688 22.5625 1.109375 20.0625 1.109375 C 16.875 1.109375 13.941406 0.300781 11.265625 -1.3125 C 8.585938 -2.9375 6.4375 -5.359375 4.8125 -8.578125 C 3.195312 -11.796875 2.390625 -15.738281 2.390625 -20.40625 C 2.390625 -25.925781 3.425781 -30.617188 5.5 -34.484375 C 7.582031 -38.359375 10.332031 -41.265625 13.75 -43.203125 C 17.164062 -45.140625 20.921875 -46.109375 25.015625 -46.109375 C 25.984375 -46.109375 27.71875 -45.992188 30.21875 -45.765625 L 29.96875 -50.890625 L 29.96875 -55.15625 C 29.96875 -56.570312 29.566406 -57.617188 28.765625 -58.296875 C 27.972656 -58.984375 26.46875 -59.328125 24.25 -59.328125 L 24.25 -62.84375 C 26.238281 -63.914062 28.828125 -64.878906 32.015625 -65.734375 C 35.203125 -66.585938 37.707031 -67.015625 39.53125 -67.015625 C 40.84375 -67.015625 41.796875 -66.710938 42.390625 -66.109375 C 42.984375 -65.515625 43.28125 -64.507812 43.28125 -63.09375 L 43.28125 -9.484375 C 43.28125 -6.691406 44.648438 -5.039062 47.390625 -4.53125 Z M 25.953125 -6.140625 C 27.710938 -6.140625 29.050781 -6.65625 29.96875 -7.6875 L 29.96875 -37.5625 C 28.769531 -39.21875 27.175781 -40.046875 25.1875 -40.046875 C 22.675781 -40.046875 20.664062 -38.734375 19.15625 -36.109375 C 17.65625 -33.492188 16.90625 -29.253906 16.90625 -23.390625 C 16.90625 -17.753906 17.742188 -13.46875 19.421875 -10.53125 C 21.097656 -7.601562 23.273438 -6.140625 25.953125 -6.140625 Z M 25.953125 -6.140625 "/></g></g></g><g fill="#fdf0d5" fill-opacity="1"><g transform="translate(287.457534, 216.374986)"><g><path d="M 22.875 1.109375 C 16.613281 1.109375 11.601562 -0.863281 7.84375 -4.8125 C 4.09375 -8.769531 2.21875 -14.421875 2.21875 -21.765625 C 2.21875 -27.003906 3.113281 -31.472656 4.90625 -35.171875 C 6.695312 -38.867188 9.210938 -41.65625 12.453125 -43.53125 C 15.703125 -45.414062 19.460938 -46.359375 23.734375 -46.359375 C 27.828125 -46.359375 31.425781 -45.460938 34.53125 -43.671875 C 37.632812 -41.878906 40.050781 -39.242188 41.78125 -35.765625 C 43.519531 -32.296875 44.390625 -28.085938 44.390625 -23.140625 C 44.390625 -17.960938 43.492188 -13.550781 41.703125 -9.90625 C 39.910156 -6.257812 37.390625 -3.507812 34.140625 -1.65625 C 30.898438 0.1875 27.144531 1.109375 22.875 1.109375 Z M 23.5625 -5.03125 C 25.550781 -5.03125 27.03125 -6.164062 28 -8.4375 C 28.96875 -10.71875 29.453125 -14.9375 29.453125 -21.09375 C 29.453125 -26.269531 29.195312 -30.25 28.6875 -33.03125 C 28.175781 -35.820312 27.460938 -37.726562 26.546875 -38.75 C 25.640625 -39.78125 24.472656 -40.296875 23.046875 -40.296875 C 21.054688 -40.296875 19.5625 -39.15625 18.5625 -36.875 C 17.570312 -34.601562 17.078125 -30.335938 17.078125 -24.078125 C 17.078125 -18.953125 17.332031 -15.007812 17.84375 -12.25 C 18.351562 -9.488281 19.078125 -7.59375 20.015625 -6.5625 C 20.953125 -5.539062 22.132812 -5.03125 23.5625 -5.03125 Z M 23.5625 -5.03125 "/></g></g></g></svg>