<svg xmlns="http://www.w3.org/2000/svg" xmlns:xlink="http://www.w3.org/1999/xlink" width="500" zoomAndPan="magnify" viewBox="0 0 375 374.999991" height="500" preserveAspectRatio="xMidYMid meet" version="1.0"><defs><g/><clipPath id="9582f8f1f8"><path d="M 19.3125 19.3125 L 355.3125 19.3125 L 355.3125 355.3125 L 19.3125 355.3125 Z M 19.3125 19.3125 " clip-rule="nonzero"/></clipPath></defs><g clip-path="url(#9582f8f1f8)"><path fill="#fdf0d5" d="M 187.496094 355.675781 C 94.578125 355.675781 19.3125 279.890625 19.3125 187.496094 C 19.3125 95.097656 94.578125 19.3125 187.496094 19.3125 C 280.410156 19.3125 355.675781 94.578125 355.675781 187.496094 C 355.675781 280.410156 279.890625 355.675781 187.496094 355.675781 Z M 187.496094 29.695312 C 100.289062 29.695312 29.695312 100.289062 29.695312 187.496094 C 29.695312 274.699219 100.289062 345.292969 187.496094 345.292969 C 274.699219 345.292969 345.292969 274.699219 345.292969 187.496094 C 345.292969 100.289062 274.179688 29.695312 187.496094 29.695312 Z M 187.496094 29.695312 " fill-opacity="1" fill-rule="nonzero"/></g><g fill="#fdf0d5" fill-opacity="1"><g transform="translate(82.507253, 251.999983)"><g><path d="M 25.4375 -45.34375 C 27.40625 -35.019531 31.273438 -26.878906 37.046875 -20.921875 C 42.828125 -14.960938 49.648438 -11.984375 57.515625 -11.984375 C 62.671875 -11.984375 66.476562 -13.457031 68.9375 -16.40625 C 71.394531 -19.351562 72.625 -22.609375 72.625 -26.171875 C 72.625 -31.460938 70.320312 -35.921875 65.71875 -39.546875 C 61.113281 -43.171875 54.507812 -47.070312 45.90625 -51.25 C 34.351562 -56.90625 25.625 -63.171875 19.71875 -70.046875 C 13.820312 -76.929688 10.875 -85.289062 10.875 -95.125 C 10.875 -102.375 12.6875 -108.671875 16.3125 -114.015625 C 19.9375 -119.359375 24.882812 -123.441406 31.15625 -126.265625 C 37.425781 -129.097656 44.429688 -130.515625 52.171875 -130.515625 C 56.222656 -130.515625 60.613281 -130.113281 65.34375 -129.3125 C 70.082031 -128.519531 73.863281 -127.320312 76.6875 -125.71875 L 92.359375 -130.515625 C 94.566406 -126.703125 95.976562 -121.445312 96.59375 -114.75 C 97.207031 -108.050781 97.515625 -100.34375 97.515625 -91.625 L 97.515625 -88.859375 L 82.21875 -88.859375 C 77.789062 -106.796875 69.125 -115.765625 56.21875 -115.765625 C 51.300781 -115.765625 47.613281 -114.378906 45.15625 -111.609375 C 42.707031 -108.847656 41.484375 -105.195312 41.484375 -100.65625 C 41.484375 -96.96875 42.460938 -93.769531 44.421875 -91.0625 C 46.390625 -88.363281 48.878906 -86.0625 51.890625 -84.15625 C 54.898438 -82.25 58.925781 -80.066406 63.96875 -77.609375 C 71.707031 -73.796875 78.1875 -70.226562 83.40625 -66.90625 C 88.632812 -63.59375 93.148438 -59.203125 96.953125 -53.734375 C 100.765625 -48.265625 102.671875 -41.78125 102.671875 -34.28125 C 102.671875 -27.40625 100.953125 -21.171875 97.515625 -15.578125 C 94.078125 -9.984375 89.066406 -5.523438 82.484375 -2.203125 C 75.910156 1.109375 68.265625 2.765625 59.546875 2.765625 C 49.585938 2.765625 39.691406 0.675781 29.859375 -3.5 L 15.671875 2.765625 C 13.335938 -1.898438 11.304688 -9.179688 9.578125 -19.078125 C 7.859375 -28.972656 7 -37.726562 7 -45.34375 Z M 25.4375 -45.34375 "/></g></g></g><g fill="#fdf0d5" fill-opacity="1"><g transform="translate(191.825422, 251.999983)"><g><path d="M 49.40625 2.390625 C 35.882812 2.390625 25.066406 -1.878906 16.953125 -10.421875 C 8.847656 -18.960938 4.796875 -31.15625 4.796875 -47 C 4.796875 -58.3125 6.726562 -67.960938 10.59375 -75.953125 C 14.46875 -83.941406 19.90625 -89.960938 26.90625 -94.015625 C 33.914062 -98.066406 42.03125 -100.09375 51.25 -100.09375 C 60.09375 -100.09375 67.863281 -98.15625 74.5625 -94.28125 C 81.257812 -90.414062 86.484375 -84.734375 90.234375 -77.234375 C 93.984375 -69.742188 95.859375 -60.648438 95.859375 -49.953125 C 95.859375 -38.773438 93.921875 -29.25 90.046875 -21.375 C 86.179688 -13.507812 80.742188 -7.582031 73.734375 -3.59375 C 66.734375 0.394531 58.625 2.390625 49.40625 2.390625 Z M 50.875 -10.875 C 55.175781 -10.875 58.367188 -13.332031 60.453125 -18.25 C 62.546875 -23.164062 63.59375 -32.257812 63.59375 -45.53125 C 63.59375 -56.71875 63.039062 -65.320312 61.9375 -71.34375 C 60.832031 -77.363281 59.296875 -81.476562 57.328125 -83.6875 C 55.359375 -85.90625 52.835938 -87.015625 49.765625 -87.015625 C 45.472656 -87.015625 42.25 -84.554688 40.09375 -79.640625 C 37.945312 -74.722656 36.875 -65.503906 36.875 -51.984375 C 36.875 -40.921875 37.425781 -32.410156 38.53125 -26.453125 C 39.632812 -20.492188 41.195312 -16.40625 43.21875 -14.1875 C 45.25 -11.976562 47.800781 -10.875 50.875 -10.875 Z M 50.875 -10.875 "/></g></g></g></svg>